<?xml version="1.0" encoding="utf-8"?>
<!-- Generator: Adobe Illustrator 16.0.0, SVG Export Plug-In . SVG Version: 6.00 Build 0)  -->
<!DOCTYPE svg PUBLIC "-//W3C//DTD SVG 1.1//EN" "http://www.w3.org/Graphics/SVG/1.1/DTD/svg11.dtd">
<svg version="1.1" id="base" xmlns="http://www.w3.org/2000/svg" xmlns:xlink="http://www.w3.org/1999/xlink" x="0px" y="0px"
	 width="500px" height="500px" viewBox="0 0 500 500" enable-background="new 0 0 500 500" xml:space="preserve">
<g id="light-green">
	<path fill="#7BC799" d="M294.479,113.627c16.5-0.011,34.197,12.811,39.327,28.493l32.477,99.276
		c5.13,15.682-1.606,36.432-14.969,46.111l-84.93,61.516c-13.362,9.679-35.24,9.693-48.616,0.033l-85.013-61.4
		c-13.376-9.66-20.14-30.401-15.031-46.09l32.343-99.321c5.109-15.689,22.789-28.535,39.289-28.546L294.479,113.627z"/>
</g>
<g id="green">
	<path fill="#4FBB7C" d="M304.717,111.627c16.5-0.011,34.197,12.811,39.327,28.493l32.477,99.276
		c5.13,15.682-1.606,36.432-14.969,46.111l-84.93,61.516c-13.362,9.679-35.24,9.693-48.616,0.033l-85.013-61.4
		c-13.376-9.66-20.14-30.401-15.031-46.09l32.343-99.321c5.109-15.689,22.789-28.535,39.289-28.546L304.717,111.627z"/>
</g>
<g id="heavy-green">
	<path fill="#19241E" d="M319.098,105.924c16.5-0.011,34.197,12.811,39.327,28.493l32.478,99.276
		c5.13,15.682-1.606,36.432-14.969,46.111l-84.931,61.516c-13.362,9.679-35.24,9.693-48.616,0.032l-85.013-61.399
		c-13.376-9.661-20.14-30.402-15.031-46.091l32.343-99.321c5.109-15.689,22.789-28.535,39.289-28.546L319.098,105.924z"/>
	<path fill="none" stroke="#000000" stroke-miterlimit="10" d="M319.098,105.924c16.5-0.011,34.197,12.811,39.327,28.493
		l32.478,99.276c5.13,15.682-1.606,36.432-14.969,46.111l-84.931,61.516c-13.362,9.679-35.24,9.693-48.616,0.032l-85.013-61.399
		c-13.376-9.661-20.14-30.402-15.031-46.091l32.343-99.321c5.109-15.689,22.789-28.535,39.289-28.546L319.098,105.924z"/>
</g>
<path id="shadow-left" opacity="0.3" fill="#7BC799" d="M167.639,199.125c3.166,0.046-9.861,22.225-10.182,44.444
	c-0.321,22.219,24.986,42.653,21.821,42.607s-29.901-20.09-29.58-42.309C150.018,221.647,164.474,199.079,167.639,199.125z"/>
<ellipse id="shadow-right" opacity="0.3" fill="#7BC799" cx="321.795" cy="117.458" rx="5.132" ry="3.852"/>
<text transform="matrix(-1.1724 -0.0245 0.0209 -0.9998 293.582 172.5527)" fill="#7BC798" font-family="'Consolas'" font-size="137.3798">C</text>
<text transform="matrix(0.892 0.0124 -0.014 0.9999 277.9043 255.7305)" fill="#FFFFFF" font-family="'Consolas'" font-size="49.9874">.js</text>
</svg>
